<?xml version="1.0" encoding="UTF-8"?>
<svg id="vavv-logo" xmlns="http://www.w3.org/2000/svg" viewBox="0 0 164.73 37.57">
    <defs>
        <style>.cls-1{fill:#333333;stroke-width:0px;} .cls-2{fill:#ffbd29;}</style>
    </defs>
    <g id="Layer_1">
        <ellipse class="cls-2" cx="65.81" cy="26.31" rx="2.6" ry="2.62" />
        <path class="cls-2"
            d="m84.4,37.57c-.78,0-1.48-.57-1.61-1.37-2.66-16.24-14.96-29.11-30.91-32.6v32.2c0,.9-.73,1.63-1.63,1.63s-1.63-.73-1.63-1.63V1.63c0-.48.21-.94.58-1.25.37-.31.85-.44,1.32-.36,18.24,3.07,32.5,17.4,35.48,35.65.15.89-.46,1.73-1.35,1.87-.09.01-.18.02-.27.02Z" />
        <path class="cls-1"
            d="m128.99,37.47c-.38,0-.76-.13-1.05-.39-.37-.31-.58-.77-.58-1.25V1.72c0-.9.73-1.63,1.63-1.63s1.63.73,1.63,1.63v32.14c15.87-3.47,28.16-16.27,30.88-32.41.15-.89.99-1.49,1.88-1.34.89.15,1.49.99,1.34,1.88-3.05,18.15-17.3,32.4-35.45,35.45-.09.01-.18.02-.27.02Z" />
        <path class="cls-1"
            d="m118.54,37.47c-.09,0-.18,0-.27-.02-18.16-3.05-32.42-17.3-35.48-35.46-.15-.89.45-1.73,1.34-1.88.88-.15,1.73.45,1.88,1.34,2.72,16.15,15.02,28.95,30.89,32.41-.03-8.74-.02-20.25,0-32.15,0-.9.73-1.63,1.63-1.63h0c.9,0,1.63.73,1.63,1.63-.03,12.82-.04,25.18,0,34.11,0,.48-.21.94-.58,1.25-.3.25-.67.39-1.06.39Z" />
        <path class="cls-1"
            d="m21.76,37.47h0c-.58,0-1.11-.31-1.4-.8L.23,2.46C-.23,1.68.03.68.8.22,1.58-.23,2.58.03,3.04.8l18.73,31.83L40.49.91c.46-.77,1.46-1.03,2.23-.58.77.46,1.03,1.46.58,2.23l-20.13,34.1c-.29.5-.83.8-1.4.8Z" />
    </g>
</svg>
